Coordinates
version=1
nRows=8
nColumns=36
inDegrees=yes

Units are S.I. units (second, meters, Newtons, ...)
If the header above contains a line with 'inDegrees', this indicates whether rotational values are in degrees (yes) or radians (no).

endheader
time	pelvis_tilt	pelvis_list	pelvis_rotation	pelvis_tx	pelvis_ty	pelvis_tz	hip_flexion_r	hip_adduction_r	hip_rotation_r	knee_angle_r	knee_angle_r_beta	ankle_angle_r	subtalar_angle_r	mtp_angle_r	hip_flexion_l	hip_adduction_l	hip_rotation_l	knee_angle_l	knee_angle_l_beta	ankle_angle_l	subtalar_angle_l	mtp_angle_l	lumbar_extension	lumbar_bending	lumbar_rotation	arm_flex_r	arm_add_r	arm_rot_r	elbow_flex_r	pro_sup_r	arm_flex_l	arm_add_l	arm_rot_l	elbow_flex_l	pro_sup_l
      3.95000000	    -10.35826076	      4.18506204	     -0.81698873	      0.79409226	      0.98019601	     -0.15368618	      8.55150617	      3.84735843	      1.29104271	      6.07807571	      0.10608243	      6.14066294	     -5.96837123	     -7.49999987	     26.16378719	      0.01315230	      5.45687629	      6.22745441	      0.10868958	     -3.27353272	     -5.03184265	     -7.49999987	     -6.93441755	     -1.41370735	     -0.04463385	     65.40995854	    -17.06706016	     50.00945774	    145.05418591	     85.75948921	     60.41547514	     -6.19803144	     60.63591197	    138.98820327	     92.05450855
      3.96666670	    -10.24245364	      4.19141630	     -0.55159874	      0.79389077	      0.98031453	     -0.15385887	      8.28131402	      3.80847661	      0.95552638	      6.13923703	      0.10714990	      6.41474020	     -5.75187194	     -7.49999987	     26.02215113	      0.16381971	      5.79759180	      5.91072844	      0.10316167	     -3.49375027	     -5.21531809	     -7.49999987	     -6.78555332	     -1.37032457	     -0.05399061	     65.02518343	    -17.47125506	     49.69036440	    144.95811618	     87.67202974	     60.14698877	     -5.69127120	     60.53891617	    139.04781259	     94.62908526
      3.98333330	     -9.98935468	      4.20945761	     -0.38421742	      0.79352573	      0.98046666	     -0.15400183	      7.88628340	      3.78975162	      0.73357564	      6.20669421	      0.10832725	      6.62295186	     -5.69479014	     -7.49999987	     25.79584140	      0.28569940	      5.85735956	      5.64092122	      0.09845265	     -3.51495694	     -5.04643686	     -7.49999987	     -6.90156023	     -1.37824139	      0.01114235	     64.69322458	    -17.90568927	     49.86380938	    144.74429516	     84.91048675	     60.09371145	     -5.41847013	     60.92302554	    138.89959809	     91.67911448
      4.00000000	     -9.80979538	      4.22869680	     -0.19670426	      0.79317507	      0.98073965	     -0.15420059	      7.62302374	      3.76213918	      0.50013806	      6.32244134	      0.11034742	      6.74845152	     -5.74581234	     -7.49999987	     25.70759881	      0.45888706	      6.03140888	      5.40228480	      0.09428766	     -3.65516750	     -5.00978101	     -7.49999987	     -6.99317489	     -1.38629760	     -0.03177520	     64.54555030	    -18.17247864	     49.98907413	    144.46886009	     83.80806085	     60.11590596	     -5.29535402	     60.94690010	    138.69658826	     90.47521224
      4.01666670	     -9.74056412	      4.22759561	     -0.08274301	      0.79308055	      0.98067878	     -0.15446124	      7.52725832	      3.74483175	      0.20613798	      6.51158186	      0.11364854	      7.01063296	     -5.61883791	     -7.49999987	     25.70958819	      0.59733295	      6.25497000	      5.16037750	      0.09006558	     -3.82350713	     -5.05107745	     -7.49999987	     -7.20270272	     -1.35520062	     -0.28686767	     64.80131121	    -18.03007429	     50.20649374	    144.17033769	     85.66870706	     60.23965637	     -5.72585139	     60.51723095	    138.55040576	     93.47369556
      4.03333330	     -9.65147584	      4.27438452	      0.01171264	      0.79288330	      0.98085533	     -0.15455562	      7.45742035	      3.68552268	     -0.01773898	      6.75138029	      0.11783382	      7.18224147	     -5.69738536	     -7.49999987	     25.70131677	      0.73945508	      6.23451151	      5.01081772	      0.08745527	     -3.82477994	     -4.68596204	     -7.49999987	     -7.46778481	     -1.38920635	     -0.48138255	     65.04023622	    -17.98134195	     50.51559597	    144.10544584	     84.73745766	     60.50493079	     -6.11639991	     60.66753795	    138.46872830	     92.47151374
      4.05000000	     -9.59495398	      4.34199311	     -0.01142013	      0.79282333	      0.98078378	     -0.15453478	      7.44030432	      3.61171167	     -0.19478245	      7.00432739	      0.12224857	      7.32627696	     -5.67570559	     -7.49999987	     25.68638183	      0.89082461	      6.33781035	      4.81987301	      0.08412265	     -3.80664493	     -4.47167729	     -7.49999987	     -7.50185106	     -1.41651444	     -0.57106891	     65.27898960	    -17.63089028	     51.38342154	    144.19633519	     83.94198030	     60.57134349	     -6.13246773	     60.94327336	    138.64062142	     91.52909581
      4.06666670	     -9.65543377	      4.36945063	      0.01164604	      0.79275160	      0.97760066	     -0.15488362	      7.71018643	      3.58127080	     -0.51628544	      7.50610253	      0.13100620	      7.51282041	     -5.58809855	     -7.49999987	     26.03268110	      1.00479691	      6.46220428	      4.96862056	      0.08671879	     -3.74945629	     -4.43500828	     -7.49999987	     -7.57540950	     -1.33115692	     -0.83142603	     65.95696053	    -17.34955314	     51.75212233	    144.06413686	     82.52617479	     60.69091096	     -6.61738125	     60.40209641	    138.79427247	     89.84027061
